# xmcd
#
# Track frame offsets: 
#        150
#        17110
#        31915
#        46555
#        62980
#        83265
#        101395
#        116755
#        133070
#        150807
#
# Disc length: 2232 seconds
#
# Revision: 31
# Processed by: cddbd v1.5.2PL0 Copyright (c) Steve Scherf et al.
# Submitted via: ExactAudioCopy v1.3
#
DISCID=6908b60a
DTITLE=Judas Priest - Point Of Entry
DYEAR=1981
DGENRE=Heavy Metal
TTITLE0=Heading Out To The Highway
TTITLE1=Don't Go
TTITLE2=Hot Rockin'
TTITLE3=Turning Circles
TTITLE4=Desert Plains
TTITLE5=Solar Angels
TTITLE6=You Say Yes
TTITLE7=All The Way
TTITLE8=Troubleshooter
TTITLE9=On The Run
EXTD=Tom Allom and Judas Priest
EXTT0=Tipton, Halford, Downing
EXTT1=Tipton, Halford, Downing
EXTT2=Tipton, Halford, Downing
EXTT3=Tipton, Halford, Downing
EXTT4=Tipton, Halford, Downing
EXTT5=Tipton, Halford, Downing
EXTT6=Tipton, Halford, Downing
EXTT7=Tipton, Halford, Downing
EXTT8=Tipton, Halford, Downing
EXTT9=Tipton, Halford, Downing
PLAYORDER=
